<svg width="623" height="136" viewBox="0 0 623 136" fill="none" xmlns="http://www.w3.org/2000/svg">
<path d="M58.832 62.872C55.712 62.872 53.48 61.984 52.136 60.208C50.792 58.384 50.12 55.72 50.12 52.216C50.12 48.712 51.248 40.648 53.504 28.024H52.352C49.424 31.864 47 36.448 45.08 41.776C43.16 47.104 41.984 51.904 41.552 56.176C39.2 58.384 36.488 59.488 33.416 59.488C32.168 59.488 31.064 59.056 30.104 58.192C29.192 57.28 28.28 55.72 27.368 53.512C25.592 49.048 24.32 40.552 23.552 28.024H22.4C20.048 38.344 18.872 45.616 18.872 49.84C18.872 54.064 19.592 57.328 21.032 59.632C18.152 61.792 15.152 62.872 12.032 62.872C8.912 62.872 6.68 61.984 5.336 60.208C3.992 58.384 3.32 55.696 3.32 52.144C3.32 48.544 4.832 38.392 7.856 21.688L4.04 13.984C9.464 10.48 14.408 8.728 18.872 8.728C20.84 8.728 22.496 8.944 23.84 9.376C25.232 9.76 26.552 10.528 27.8 11.68C29.096 12.832 30.152 14.44 30.968 16.504C32.84 21.16 34.184 27.952 35 36.88H35.864C38.36 29.536 41.816 23.224 46.232 17.944C48.632 15.112 51.488 12.88 54.8 11.248C58.16 9.616 61.784 8.8 65.672 8.8C69.368 8.8 71.216 11.032 71.216 15.496C71.216 16.984 70.28 22.528 68.408 32.128C66.584 41.68 65.672 47.368 65.672 49.192C65.672 53.848 66.392 57.328 67.832 59.632C64.952 61.792 61.952 62.872 58.832 62.872ZM112.338 23.272C115.026 23.272 117.33 24.352 119.25 26.512C121.218 28.672 122.202 31.816 122.202 35.944C122.202 40.024 121.482 43.816 120.042 47.32C118.602 50.776 116.706 53.608 114.354 55.816C112.002 58.024 109.338 59.752 106.362 61C103.386 62.2 100.338 62.8 97.2176 62.8C90.9296 62.8 85.9616 61.072 82.3136 57.616C78.6656 54.16 76.8416 49.576 76.8416 43.864C76.8416 36.136 79.3136 29.872 84.2576 25.072C89.2496 20.224 95.5856 17.8 103.266 17.8C104.994 17.8 106.722 17.992 108.45 18.376C108.978 19.96 109.266 21.76 109.314 23.776C110.322 23.44 111.33 23.272 112.338 23.272ZM103.482 33.28C103.482 31.936 103.794 30.424 104.418 28.744C105.09 27.064 106.146 25.72 107.586 24.712C101.25 26.056 96.8816 28.624 94.4816 32.416C92.4176 35.68 91.3856 39.04 91.3856 42.496C91.3856 45.952 92.0816 48.736 93.4736 50.848C94.9136 52.912 96.7376 53.944 98.9456 53.944C103.842 53.944 107.298 50.752 109.314 44.368C105.426 41.968 103.482 38.272 103.482 33.28ZM141.126 62.8C136.902 62.8 133.95 61.768 132.27 59.704C130.59 57.64 129.75 55.048 129.75 51.928C129.75 48.76 130.278 44.44 131.334 38.968C132.39 33.496 132.918 29.536 132.918 27.088C132.918 24.64 132.414 22.72 131.406 21.328C135.87 18.976 139.638 17.8 142.71 17.8C144.678 17.8 146.094 18.208 146.958 19.024C147.87 19.792 148.326 21.064 148.326 22.84C148.326 24.616 147.582 28.984 146.094 35.944C144.654 42.856 143.934 47.128 143.934 48.76C143.934 50.392 144.39 51.688 145.302 52.648C146.214 53.56 147.414 54.016 148.902 54.016C150.39 54.016 151.974 53.44 153.654 52.288C155.334 51.088 156.702 49.408 157.758 47.248C158.43 43.36 159.75 37.216 161.718 28.816L157.398 23.056C162.246 19.552 166.854 17.8 171.222 17.8C173.382 17.8 174.918 18.208 175.83 19.024C176.79 19.792 177.27 20.992 177.27 22.624C177.27 24.208 176.382 28.792 174.606 36.376C172.878 43.96 172.014 49.36 172.014 52.576C172.014 55.744 172.758 57.976 174.246 59.272C171.558 61.624 168.726 62.8 165.75 62.8C162.822 62.8 160.71 62.152 159.414 60.856C158.118 59.56 157.47 57.856 157.47 55.744L156.75 55.384C155.166 57.688 152.958 59.512 150.126 60.856C147.342 62.152 144.342 62.8 141.126 62.8ZM192.295 62.8C189.463 62.8 187.375 62.056 186.031 60.568C184.687 59.08 184.015 57.112 184.015 54.664C184.015 52.216 184.495 48.232 185.455 42.712C186.463 37.192 187.495 32.152 188.551 27.592L184.807 21.832C189.559 19.144 193.951 17.8 197.983 17.8C202.015 17.8 204.031 19.624 204.031 23.272C204.031 25.672 203.479 28.12 202.375 30.616L203.095 30.976C208.231 22.192 214.759 17.8 222.679 17.8C228.487 17.8 231.391 20.704 231.391 26.512C231.391 29.008 230.671 33.232 229.231 39.184C227.839 45.136 227.143 49.624 227.143 52.648C227.143 55.672 227.647 57.88 228.655 59.272C226.111 61.624 223.423 62.8 220.591 62.8C215.071 62.8 212.311 59.824 212.311 53.872C212.311 51.664 213.031 47.92 214.471 42.64C215.911 37.36 216.631 33.928 216.631 32.344C216.631 30.184 215.815 29.104 214.183 29.104C212.839 29.104 211.303 29.704 209.575 30.904C207.847 32.056 206.167 33.64 204.535 35.656C202.951 37.624 201.607 40.144 200.503 43.216C199.399 46.24 198.847 49.336 198.847 52.504C198.847 55.624 199.351 57.88 200.359 59.272C197.815 61.624 195.127 62.8 192.295 62.8ZM239.441 35.008C239.105 33.664 238.937 32.416 238.937 31.264C238.937 28.912 239.633 27.136 241.025 25.936C242.417 24.736 244.217 24.136 246.425 24.136C246.425 21.64 245.777 18.928 244.481 16C246.833 14.272 248.969 12.976 250.889 12.112C252.857 11.2 254.921 10.744 257.081 10.744C259.241 10.744 260.729 11.152 261.545 11.968C262.409 12.736 262.841 13.936 262.841 15.568C262.841 17.2 262.505 19.744 261.833 23.2C263.753 22.912 265.697 22.504 267.665 21.976C268.001 22.984 268.169 24.28 268.169 25.864C268.169 27.448 267.545 28.936 266.297 30.328C265.097 31.672 263.321 32.344 260.969 32.344H259.889C258.161 40.168 257.297 46.192 257.297 50.416C257.297 54.64 258.041 57.592 259.529 59.272C256.841 61.624 253.985 62.8 250.961 62.8C247.937 62.8 245.753 61.912 244.409 60.136C243.113 58.312 242.465 55.504 242.465 51.712C242.465 49.408 243.305 43.36 244.985 33.568C243.065 33.904 241.217 34.384 239.441 35.008ZM299.603 52.144L298.883 51.784C297.587 55.24 295.715 57.952 293.267 59.92C290.867 61.84 288.179 62.8 285.203 62.8C281.123 62.8 277.859 61.264 275.411 58.192C272.963 55.12 271.739 51.016 271.739 45.88C271.739 37.912 274.403 31.24 279.731 25.864C285.107 20.488 291.779 17.8 299.747 17.8C301.811 17.8 303.707 17.992 305.435 18.376C305.723 19.72 305.891 20.896 305.939 21.904C308.339 20.368 310.811 19.6 313.355 19.6C316.859 19.6 318.611 21.496 318.611 25.288C318.611 26.632 317.843 30.688 316.307 37.456C314.819 44.224 314.075 49.24 314.075 52.504C314.075 55.768 314.819 58.024 316.307 59.272C313.619 61.624 310.811 62.8 307.883 62.8C305.003 62.8 302.891 61.936 301.547 60.208C300.251 58.48 299.603 55.792 299.603 52.144ZM285.275 42.352C285.275 44.704 285.755 46.528 286.715 47.824C287.723 49.072 289.139 49.696 290.963 49.696C292.787 49.696 294.587 49.024 296.363 47.68C298.139 46.336 299.627 44.488 300.827 42.136C301.259 37.288 302.195 31.552 303.635 24.928C298.787 24.928 294.515 26.68 290.819 30.184C287.123 33.688 285.275 37.744 285.275 42.352ZM349.091 6.424C349.091 8.248 348.131 9.832 346.211 11.176C344.291 12.472 342.107 13.12 339.659 13.12C337.211 13.12 335.267 12.64 333.827 11.68C332.435 10.72 331.739 9.424 331.739 7.792C331.739 5.584 332.771 3.856 334.835 2.608C336.899 1.36 339.083 0.735999 341.387 0.735999C343.691 0.735999 345.539 1.216 346.931 2.176C348.371 3.136 349.091 4.552 349.091 6.424ZM335.051 62.8C332.075 62.8 329.915 62.056 328.571 60.568C327.227 59.08 326.555 56.824 326.555 53.8C326.555 50.728 328.091 42.544 331.163 29.248L327.131 23.2C333.131 19.6 337.859 17.8 341.315 17.8C343.283 17.8 344.675 18.232 345.491 19.096C346.307 19.912 346.715 21.256 346.715 23.128C346.715 23.848 345.827 28.072 344.051 35.8C342.275 43.528 341.387 49.048 341.387 52.36C341.387 55.672 342.131 57.976 343.619 59.272C340.931 61.624 338.075 62.8 335.051 62.8ZM362.029 62.8C359.197 62.8 357.109 62.056 355.765 60.568C354.421 59.08 353.749 57.112 353.749 54.664C353.749 52.216 354.229 48.232 355.189 42.712C356.197 37.192 357.229 32.152 358.285 27.592L354.541 21.832C359.293 19.144 363.685 17.8 367.717 17.8C371.749 17.8 373.765 19.624 373.765 23.272C373.765 25.672 373.213 28.12 372.109 30.616L372.829 30.976C377.965 22.192 384.493 17.8 392.413 17.8C398.221 17.8 401.125 20.704 401.125 26.512C401.125 29.008 400.405 33.232 398.965 39.184C397.573 45.136 396.877 49.624 396.877 52.648C396.877 55.672 397.381 57.88 398.389 59.272C395.845 61.624 393.157 62.8 390.325 62.8C384.805 62.8 382.045 59.824 382.045 53.872C382.045 51.664 382.765 47.92 384.205 42.64C385.645 37.36 386.365 33.928 386.365 32.344C386.365 30.184 385.549 29.104 383.917 29.104C382.573 29.104 381.037 29.704 379.309 30.904C377.581 32.056 375.901 33.64 374.269 35.656C372.685 37.624 371.341 40.144 370.237 43.216C369.133 46.24 368.581 49.336 368.581 52.504C368.581 55.624 369.085 57.88 370.093 59.272C367.549 61.624 364.861 62.8 362.029 62.8ZM0.44 109.264C0.44 107.024 0.92 104.752 1.88 102.448C2.84 100.112 4.2 97.952 5.96 95.968C7.72 93.984 10.008 92.368 12.824 91.12C15.672 89.84 18.6 89.2 21.608 89.2C24.648 89.2 27.016 89.76 28.712 90.88C30.44 92 31.304 93.552 31.304 95.536C31.304 97.52 30.648 99.072 29.336 100.192C28.056 101.28 26.584 101.824 24.92 101.824C23.256 101.824 21.752 101.472 20.408 100.768C19.096 100.032 18.04 98.992 17.24 97.648C15.512 98.48 14.024 100.112 12.776 102.544C11.528 104.976 10.904 107.424 10.904 109.888C10.904 112.32 11.304 114.256 12.104 115.696C12.904 117.104 14.04 117.808 15.512 117.808C16.984 117.808 18.28 117.056 19.4 115.552C20.552 114.048 21.128 112.24 21.128 110.128C24.36 110.128 26.664 110.384 28.04 110.896C29.448 111.408 30.152 112.512 30.152 114.208C30.152 116.864 28.712 119.36 25.832 121.696C22.952 124.032 19.336 125.2 14.984 125.2C10.632 125.2 7.112 123.856 4.424 121.168C1.768 118.48 0.44 114.512 0.44 109.264ZM38.9176 94.144L36.2296 90.304C40.2296 87.968 43.3816 86.8 45.6856 86.8C46.9976 86.8 47.9256 87.072 48.4696 87.616C49.0136 88.128 49.2856 89.12 49.2856 90.592C49.2856 92.032 48.5656 96.128 47.1256 102.88C45.7176 109.632 45.0136 114.368 45.0136 117.088C45.0136 119.808 45.5096 121.728 46.5016 122.848C44.2616 124.416 42.2296 125.2 40.4056 125.2C38.5816 125.2 37.2376 124.608 36.3736 123.424C35.5416 122.208 35.1256 120.544 35.1256 118.432C35.1256 116.32 35.7176 112 36.9016 105.472C38.0856 98.944 38.7576 95.168 38.9176 94.144ZM68.3784 87.616C68.3784 88.832 67.7384 89.888 66.4584 90.784C65.1784 91.648 63.7224 92.08 62.0904 92.08C60.4584 92.08 59.1624 91.76 58.2024 91.12C57.2744 90.48 56.8104 89.616 56.8104 88.528C56.8104 87.056 57.4984 85.904 58.8744 85.072C60.2504 84.24 61.7064 83.824 63.2424 83.824C64.7784 83.824 66.0104 84.144 66.9384 84.784C67.8984 85.424 68.3784 86.368 68.3784 87.616ZM59.0184 125.2C57.0344 125.2 55.5944 124.704 54.6984 123.712C53.8024 122.72 53.3544 121.216 53.3544 119.2C53.3544 117.152 54.3784 111.696 56.4264 102.832L53.7384 98.8C57.7384 96.4 60.8904 95.2 63.1944 95.2C64.5064 95.2 65.4344 95.488 65.9784 96.064C66.5224 96.608 66.7944 97.504 66.7944 98.752C66.7944 99.232 66.2024 102.048 65.0184 107.2C63.8344 112.352 63.2424 116.032 63.2424 118.24C63.2424 120.448 63.7384 121.984 64.7304 122.848C62.9384 124.416 61.0344 125.2 59.0184 125.2ZM102.108 103.744L102.588 103.984C106.012 98.128 110.204 95.2 115.164 95.2C119.036 95.2 120.972 97.136 120.972 101.008C120.972 102.672 120.492 105.488 119.532 109.456C118.604 113.424 118.14 116.416 118.14 118.432C118.14 120.448 118.476 121.92 119.148 122.848C117.452 124.416 115.66 125.2 113.772 125.2C110.092 125.2 108.252 123.216 108.252 119.248C108.252 117.776 108.732 115.28 109.692 111.76C110.652 108.24 111.132 105.952 111.132 104.896C111.132 103.456 110.588 102.736 109.5 102.736C108.604 102.736 107.596 103.136 106.476 103.936C105.388 104.704 104.332 105.76 103.308 107.104C102.316 108.416 101.468 110.096 100.764 112.144C100.092 114.16 99.7558 116.224 99.7558 118.336C99.7558 120.416 100.092 121.92 100.764 122.848C99.0678 124.416 97.2758 125.2 95.3878 125.2C91.7078 125.2 89.8678 123.216 89.8678 119.248C89.8678 117.776 90.3478 115.28 91.3078 111.76C92.2678 108.24 92.7478 105.952 92.7478 104.896C92.7478 103.456 92.2038 102.736 91.1158 102.736C90.2198 102.736 89.2118 103.136 88.0918 103.936C87.0038 104.704 85.9478 105.76 84.9238 107.104C83.9318 108.416 83.0838 110.096 82.3798 112.144C81.7078 114.16 81.3718 116.224 81.3718 118.336C81.3718 120.416 81.7078 121.92 82.3798 122.848C80.6838 124.416 78.8918 125.2 77.0038 125.2C73.3238 125.2 71.4838 123.216 71.4838 119.248C71.4838 117.968 71.8038 115.488 72.4438 111.808C73.1158 108.128 73.8038 104.768 74.5078 101.728L72.0117 97.888C75.1798 96.096 78.1078 95.2 80.7958 95.2C83.4838 95.2 84.8278 96.416 84.8278 98.848C84.8278 100.448 84.4598 102.08 83.7238 103.744L84.2038 103.984C87.6278 98.128 91.8198 95.2 96.7798 95.2C98.5718 95.2 99.9798 95.648 101.004 96.544C102.06 97.44 102.588 98.784 102.588 100.576C102.588 101.536 102.428 102.592 102.108 103.744ZM126.293 114.88C126.293 112.192 127.333 105.28 129.413 94.144L126.725 90.304C128.709 89.12 130.373 88.24 131.717 87.664C133.093 87.088 134.453 86.8 135.797 86.8C137.173 86.8 138.181 87.072 138.821 87.616C139.461 88.16 139.781 89.024 139.781 90.208C139.781 92.256 139.157 96.272 137.909 102.256L138.389 102.496C140.693 97.92 144.053 95.632 148.469 95.632C150.965 95.632 152.917 96.704 154.325 98.848C155.733 100.96 156.437 103.536 156.437 106.576C156.437 109.584 155.829 112.304 154.613 114.736C153.429 117.136 151.877 119.088 149.957 120.592C148.069 122.064 146.005 123.2 143.765 124C141.525 124.8 139.301 125.2 137.093 125.2C133.477 125.2 130.773 124.368 128.981 122.704C127.189 121.04 126.293 118.432 126.293 114.88ZM135.797 119.632C139.349 119.632 142.229 118.416 144.437 115.984C146.677 113.552 147.797 110.832 147.797 107.824C147.797 106.448 147.413 105.2 146.645 104.08C145.909 102.96 144.933 102.4 143.717 102.4C142.501 102.4 141.365 102.896 140.309 103.888C139.285 104.88 138.485 106.064 137.909 107.44C137.365 108.816 136.917 110.368 136.565 112.096C136.053 114.816 135.797 117.328 135.797 119.632ZM176.753 87.616C176.753 88.832 176.113 89.888 174.833 90.784C173.553 91.648 172.097 92.08 170.465 92.08C168.833 92.08 167.537 91.76 166.577 91.12C165.649 90.48 165.185 89.616 165.185 88.528C165.185 87.056 165.873 85.904 167.249 85.072C168.625 84.24 170.081 83.824 171.617 83.824C173.153 83.824 174.385 84.144 175.313 84.784C176.273 85.424 176.753 86.368 176.753 87.616ZM167.393 125.2C165.409 125.2 163.969 124.704 163.073 123.712C162.177 122.72 161.729 121.216 161.729 119.2C161.729 117.152 162.753 111.696 164.801 102.832L162.113 98.8C166.113 96.4 169.265 95.2 171.569 95.2C172.881 95.2 173.809 95.488 174.353 96.064C174.897 96.608 175.169 97.504 175.169 98.752C175.169 99.232 174.577 102.048 173.393 107.2C172.209 112.352 171.617 116.032 171.617 118.24C171.617 120.448 172.113 121.984 173.105 122.848C171.313 124.416 169.409 125.2 167.393 125.2ZM185.379 125.2C183.491 125.2 182.099 124.704 181.203 123.712C180.307 122.72 179.859 121.408 179.859 119.776C179.859 118.144 180.179 115.488 180.819 111.808C181.491 108.128 182.179 104.768 182.883 101.728L180.387 97.888C183.555 96.096 186.483 95.2 189.171 95.2C191.859 95.2 193.203 96.416 193.203 98.848C193.203 100.448 192.835 102.08 192.099 103.744L192.579 103.984C196.003 98.128 200.355 95.2 205.635 95.2C209.507 95.2 211.443 97.136 211.443 101.008C211.443 102.672 210.963 105.488 210.003 109.456C209.075 113.424 208.611 116.416 208.611 118.432C208.611 120.448 208.947 121.92 209.619 122.848C207.923 124.416 206.131 125.2 204.243 125.2C200.563 125.2 198.723 123.216 198.723 119.248C198.723 117.776 199.203 115.28 200.163 111.76C201.123 108.24 201.603 105.952 201.603 104.896C201.603 103.456 201.059 102.736 199.971 102.736C199.075 102.736 198.051 103.136 196.899 103.936C195.747 104.704 194.627 105.76 193.539 107.104C192.483 108.416 191.587 110.096 190.851 112.144C190.115 114.16 189.747 116.224 189.747 118.336C189.747 120.416 190.083 121.92 190.755 122.848C189.059 124.416 187.267 125.2 185.379 125.2ZM225.066 110.56C225.066 112.192 225.514 113.52 226.41 114.544C227.338 115.536 228.474 116.032 229.818 116.032C231.642 116.032 233.274 115.168 234.714 113.44C235.258 110.592 235.962 106.096 236.826 99.952C233.242 99.952 230.378 100.992 228.234 103.072C226.122 105.152 225.066 107.648 225.066 110.56ZM237.786 128.752C236.282 130.768 234.394 132.352 232.122 133.504C229.85 134.688 227.45 135.28 224.922 135.28C222.426 135.28 220.41 134.8 218.874 133.84C217.37 132.912 216.618 131.648 216.618 130.048C216.618 128.448 217.274 126.768 218.586 125.008C220.058 127.184 222.266 128.272 225.21 128.272C227.13 128.272 228.906 127.44 230.538 125.776C232.202 124.144 233.306 121.744 233.85 118.576L233.37 118.336C231.098 121.664 228.186 123.328 224.634 123.328C221.946 123.328 219.834 122.288 218.298 120.208C216.762 118.128 215.994 115.36 215.994 111.904C215.994 108.576 216.906 105.536 218.73 102.784C220.81 99.616 223.706 97.424 227.418 96.208C229.466 95.536 231.418 95.2 233.274 95.2C235.13 95.2 236.698 95.328 237.978 95.584C238.17 96.448 238.282 97.232 238.314 97.936C239.818 96.912 241.338 96.4 242.874 96.4C245.082 96.4 246.186 97.536 246.186 99.808C246.186 102.08 246.042 104.416 245.754 106.816C245.466 109.184 245.018 111.728 244.41 114.448C243.802 117.168 242.922 119.744 241.77 122.176C240.65 124.576 239.322 126.768 237.786 128.752ZM263.577 97.504C263.577 94.912 264.249 92.96 265.593 91.648C266.937 90.336 268.537 89.68 270.393 89.68C272.281 89.68 274.841 90 278.073 90.64C281.305 91.28 283.737 91.616 285.369 91.648C288.089 91.136 290.681 90.512 293.145 89.776C293.401 90.608 293.529 91.648 293.529 92.896C293.529 95.488 292.777 97.44 291.273 98.752C289.801 100.064 287.913 100.72 285.609 100.72C285.033 100.72 284.265 100.688 283.305 100.624C281.545 109.872 280.665 115.04 280.665 116.128C280.665 119.232 281.145 121.552 282.105 123.088C280.185 124.528 278.185 125.248 276.105 125.248C274.025 125.248 272.537 124.656 271.641 123.472C270.745 122.256 270.297 120.464 270.297 118.096C270.297 115.696 271.225 109.328 273.081 98.992C269.465 99.472 266.425 100.016 263.961 100.624C263.705 99.824 263.577 98.784 263.577 97.504ZM294.14 119.248C294.14 117.968 294.46 115.488 295.1 111.808C295.772 108.128 296.46 104.768 297.164 101.728L294.668 97.888C298.668 96.096 301.468 95.2 303.068 95.2C304.7 95.2 305.516 96.224 305.516 98.272C305.516 99.392 304.988 101.728 303.932 105.28L304.412 105.52C306.716 98.64 309.58 95.2 313.004 95.2C314.572 95.2 315.772 95.68 316.604 96.64C317.436 97.6 317.852 98.672 317.852 99.856C317.852 101.616 317.196 103.12 315.884 104.368C314.572 105.616 312.604 106.24 309.98 106.24C306.012 106.24 304.028 110.32 304.028 118.48C304.028 120.464 304.364 121.92 305.036 122.848C303.052 124.416 301.228 125.2 299.564 125.2C295.948 125.2 294.14 123.216 294.14 119.248ZM335.05 87.616C335.05 88.832 334.41 89.888 333.13 90.784C331.85 91.648 330.394 92.08 328.762 92.08C327.13 92.08 325.834 91.76 324.874 91.12C323.946 90.48 323.482 89.616 323.482 88.528C323.482 87.056 324.17 85.904 325.546 85.072C326.922 84.24 328.378 83.824 329.914 83.824C331.45 83.824 332.682 84.144 333.61 84.784C334.57 85.424 335.05 86.368 335.05 87.616ZM325.69 125.2C323.706 125.2 322.266 124.704 321.37 123.712C320.474 122.72 320.026 121.216 320.026 119.2C320.026 117.152 321.05 111.696 323.098 102.832L320.41 98.8C324.41 96.4 327.562 95.2 329.866 95.2C331.178 95.2 332.106 95.488 332.65 96.064C333.194 96.608 333.466 97.504 333.466 98.752C333.466 99.232 332.874 102.048 331.69 107.2C330.506 112.352 329.914 116.032 329.914 118.24C329.914 120.448 330.41 121.984 331.402 122.848C329.61 124.416 327.706 125.2 325.69 125.2ZM343.484 133.552C341.5 133.552 340.108 133.056 339.308 132.064C338.54 131.104 338.156 129.696 338.156 127.84C338.156 126.016 338.54 122.32 339.308 116.752C340.108 111.184 340.876 106.432 341.612 102.496L338.924 98.656C340.908 97.504 342.62 96.64 344.06 96.064C345.5 95.456 346.924 95.152 348.332 95.152C350.636 95.152 351.788 96.672 351.788 99.712C351.788 100.128 351.724 100.976 351.596 102.256L352.076 102.496C353.004 100.192 354.348 98.4 356.108 97.12C357.868 95.808 359.932 95.152 362.3 95.152C364.7 95.152 366.604 96.24 368.012 98.416C369.42 100.56 370.124 103.232 370.124 106.432C370.124 110.72 368.62 114.624 365.612 118.144C364.14 119.872 362.172 121.28 359.708 122.368C357.244 123.424 354.492 123.952 351.452 123.952C350.524 123.952 349.308 123.872 347.804 123.712C347.708 124.832 347.66 125.872 347.66 126.832C347.66 128.88 348.156 130.336 349.148 131.2C347.356 132.768 345.468 133.552 343.484 133.552ZM349.772 113.68L348.668 119.248C352.54 119.152 355.628 117.888 357.932 115.456C360.268 112.992 361.436 110.304 361.436 107.392C361.436 105.888 361.132 104.688 360.524 103.792C359.948 102.864 359.1 102.4 357.98 102.4C354.012 102.4 351.276 106.16 349.772 113.68ZM390.218 101.584C389.034 101.936 388.09 102.448 387.386 103.12C386.682 103.76 386.058 104.688 385.514 105.904C390.922 106.704 394.73 107.856 396.938 109.36C399.146 110.864 400.25 113.008 400.25 115.792C400.25 117.552 399.754 119.088 398.762 120.4C397.77 121.68 396.522 122.656 395.018 123.328C392.074 124.576 389.178 125.2 386.33 125.2C378.234 125.2 374.186 123.456 374.186 119.968C374.186 118.208 374.97 116.448 376.538 114.688C377.338 115.808 378.538 116.768 380.138 117.568C381.77 118.368 383.354 118.768 384.89 118.768C387.546 118.768 389.146 117.6 389.69 115.264C384.826 114.688 381.306 113.6 379.13 112C376.954 110.4 375.866 108.144 375.866 105.232C375.866 102.928 376.618 100.992 378.122 99.424C379.658 97.856 381.546 96.768 383.786 96.16C386.058 95.52 388.602 95.2 391.418 95.2C394.266 95.2 396.602 95.744 398.426 96.832C400.282 97.888 401.21 99.184 401.21 100.72C401.21 102.256 400.666 103.44 399.578 104.272C398.522 105.104 397.354 105.52 396.074 105.52C394.826 105.52 393.674 105.184 392.618 104.512C391.594 103.84 390.794 102.864 390.218 101.584ZM436.892 93.184C435.036 93.632 433.596 94.432 432.572 95.584C431.58 96.704 431.084 97.92 431.084 99.232C431.084 100.544 431.58 101.648 432.572 102.544C433.564 103.44 434.94 103.888 436.7 103.888C438.492 103.888 441.388 103.44 445.388 102.544C449.388 101.648 452.044 101.2 453.356 101.2C454.668 101.2 455.324 102.08 455.324 103.84C455.324 105.568 455.02 107.184 454.412 108.688C453.516 108.496 452.524 108.4 451.436 108.4C450.348 108.4 449.148 108.528 447.836 108.784C447.836 112.208 447.292 115.28 446.204 118C445.148 120.688 443.724 122.848 441.932 124.48C438.284 127.744 434.092 129.376 429.356 129.376C425.772 129.376 423.02 128.464 421.1 126.64C419.18 124.816 418.22 122.656 418.22 120.16C418.22 117.664 418.892 115.312 420.236 113.104C421.612 110.864 423.548 109.008 426.044 107.536C424.508 106.608 423.34 105.424 422.54 103.984C421.74 102.544 421.34 101.024 421.34 99.424C421.34 96.128 422.94 93.2 426.14 90.64C429.34 88.08 433.612 86.8 438.956 86.8C441.708 86.8 443.884 87.328 445.484 88.384C447.084 89.408 447.884 90.704 447.884 92.272C447.884 93.84 447.34 95.04 446.252 95.872C445.196 96.704 444.028 97.12 442.748 97.12C441.5 97.12 440.348 96.784 439.292 96.112C438.268 95.44 437.468 94.464 436.892 93.184ZM433.484 119.632C435.372 119.632 437.292 118.736 439.244 116.944C441.228 115.12 442.396 112.528 442.748 109.168C439.164 109.552 436.684 109.744 435.308 109.744C433.964 109.744 432.892 109.68 432.092 109.552C430.172 111.6 429.212 113.648 429.212 115.696C429.212 116.912 429.612 117.872 430.412 118.576C431.212 119.28 432.236 119.632 433.484 119.632ZM468.89 97.504C468.89 94.912 469.562 92.96 470.906 91.648C472.25 90.336 473.85 89.68 475.706 89.68C477.594 89.68 480.154 90 483.386 90.64C486.618 91.28 489.05 91.616 490.682 91.648C493.402 91.136 495.994 90.512 498.458 89.776C498.714 90.608 498.842 91.648 498.842 92.896C498.842 95.488 498.09 97.44 496.586 98.752C495.114 100.064 493.226 100.72 490.922 100.72C490.346 100.72 489.578 100.688 488.618 100.624C486.858 109.872 485.978 115.04 485.978 116.128C485.978 119.232 486.458 121.552 487.418 123.088C485.498 124.528 483.498 125.248 481.418 125.248C479.338 125.248 477.85 124.656 476.954 123.472C476.058 122.256 475.61 120.464 475.61 118.096C475.61 115.696 476.538 109.328 478.394 98.992C474.778 99.472 471.738 100.016 469.274 100.624C469.018 99.824 468.89 98.784 468.89 97.504ZM522.637 98.848C524.429 98.848 525.965 99.568 527.245 101.008C528.557 102.448 529.213 104.544 529.213 107.296C529.213 110.016 528.733 112.544 527.773 114.88C526.813 117.184 525.549 119.072 523.981 120.544C522.413 122.016 520.637 123.168 518.653 124C516.669 124.8 514.637 125.2 512.557 125.2C508.365 125.2 505.053 124.048 502.621 121.744C500.189 119.44 498.973 116.384 498.973 112.576C498.973 107.424 500.621 103.248 503.917 100.048C507.245 96.816 511.469 95.2 516.589 95.2C517.741 95.2 518.893 95.328 520.045 95.584C520.397 96.64 520.589 97.84 520.621 99.184C521.293 98.96 521.965 98.848 522.637 98.848ZM516.733 105.52C516.733 104.624 516.941 103.616 517.357 102.496C517.805 101.376 518.509 100.48 519.469 99.808C515.245 100.704 512.333 102.416 510.733 104.944C509.357 107.12 508.669 109.36 508.669 111.664C508.669 113.968 509.133 115.824 510.061 117.232C511.021 118.608 512.237 119.296 513.709 119.296C516.973 119.296 519.277 117.168 520.621 112.912C518.029 111.312 516.733 108.848 516.733 105.52ZM541.829 125.2C539.013 125.2 537.045 124.512 535.925 123.136C534.805 121.76 534.245 120.032 534.245 117.952C534.245 115.84 534.597 112.96 535.301 109.312C536.005 105.664 536.357 103.024 536.357 101.392C536.357 99.76 536.021 98.48 535.349 97.552C538.325 95.984 540.837 95.2 542.885 95.2C544.197 95.2 545.141 95.472 545.717 96.016C546.325 96.528 546.629 97.376 546.629 98.56C546.629 99.744 546.133 102.656 545.141 107.296C544.181 111.904 543.701 114.752 543.701 115.84C543.701 116.928 544.005 117.792 544.613 118.432C545.221 119.04 546.021 119.344 547.013 119.344C548.005 119.344 549.061 118.96 550.181 118.192C551.301 117.392 552.213 116.272 552.917 114.832C553.365 112.24 554.245 108.144 555.557 102.544L552.677 98.704C555.909 96.368 558.981 95.2 561.893 95.2C563.333 95.2 564.357 95.472 564.965 96.016C565.605 96.528 565.925 97.328 565.925 98.416C565.925 99.472 565.333 102.528 564.149 107.584C562.997 112.64 562.421 116.24 562.421 118.384C562.421 120.496 562.917 121.984 563.909 122.848C562.117 124.416 560.229 125.2 558.245 125.2C556.293 125.2 554.885 124.768 554.021 123.904C553.157 123.04 552.725 121.904 552.725 120.496L552.245 120.256C551.189 121.792 549.717 123.008 547.829 123.904C545.973 124.768 543.973 125.2 541.829 125.2ZM570.421 119.248C570.421 117.968 570.741 115.488 571.381 111.808C572.053 108.128 572.741 104.768 573.445 101.728L570.949 97.888C574.949 96.096 577.749 95.2 579.349 95.2C580.981 95.2 581.797 96.224 581.797 98.272C581.797 99.392 581.269 101.728 580.213 105.28L580.693 105.52C582.997 98.64 585.861 95.2 589.285 95.2C590.853 95.2 592.053 95.68 592.885 96.64C593.717 97.6 594.133 98.672 594.133 99.856C594.133 101.616 593.477 103.12 592.165 104.368C590.853 105.616 588.885 106.24 586.261 106.24C582.293 106.24 580.309 110.32 580.309 118.48C580.309 120.464 580.645 121.92 581.317 122.848C579.333 124.416 577.509 125.2 575.845 125.2C572.229 125.2 570.421 123.216 570.421 119.248ZM611.14 101.584C609.956 101.936 609.012 102.448 608.308 103.12C607.604 103.76 606.98 104.688 606.436 105.904C611.844 106.704 615.652 107.856 617.859 109.36C620.068 110.864 621.172 113.008 621.172 115.792C621.172 117.552 620.676 119.088 619.684 120.4C618.692 121.68 617.444 122.656 615.94 123.328C612.996 124.576 610.1 125.2 607.252 125.2C599.156 125.2 595.108 123.456 595.108 119.968C595.108 118.208 595.892 116.448 597.46 114.688C598.26 115.808 599.46 116.768 601.06 117.568C602.692 118.368 604.276 118.768 605.812 118.768C608.468 118.768 610.068 117.6 610.612 115.264C605.748 114.688 602.228 113.6 600.052 112C597.876 110.4 596.788 108.144 596.788 105.232C596.788 102.928 597.54 100.992 599.044 99.424C600.58 97.856 602.468 96.768 604.708 96.16C606.98 95.52 609.524 95.2 612.34 95.2C615.188 95.2 617.524 95.744 619.348 96.832C621.204 97.888 622.132 99.184 622.132 100.72C622.132 102.256 621.588 103.44 620.5 104.272C619.444 105.104 618.276 105.52 616.996 105.52C615.748 105.52 614.596 105.184 613.54 104.512C612.516 103.84 611.716 102.864 611.14 101.584Z" fill="white"/>
</svg>
